<mxfile host="app.diagrams.net">
  <diagram name="今後の展望ロードマップ" id="roadmap">
    <mxGraphModel dx="1422" dy="794" grid="1" gridSize="10" guides="1" tooltips="1" connect="1" arrows="1" fold="1" page="1" pageScale="1" pageWidth="1600" pageHeight="900" background="#ffffff">
      <root>
        <mxCell id="0"/>
        <mxCell id="1" parent="0"/>

        <!-- Title -->
        <mxCell id="title" value="今後の展望：さらなる開発体験の向上へ" style="text;html=1;strokeColor=none;fillColor=none;align=center;verticalAlign=middle;whiteSpace=wrap;rounded=0;fontSize=30;fontStyle=1;fontColor=#232F3E;" vertex="1" parent="1">
          <mxGeometry x="300" y="30" width="1000" height="50" as="geometry"/>
        </mxCell>

        <!-- Timeline -->
        <mxCell id="timeline" value="" style="rounded=0;whiteSpace=wrap;html=1;fillColor=#e1d5e7;strokeColor=#9673a6;strokeWidth=4;" vertex="1" parent="1">
          <mxGeometry x="200" y="430" width="1200" height="20" as="geometry"/>
        </mxCell>

        <!-- Current -->
        <mxCell id="current-marker" value="" style="ellipse;whiteSpace=wrap;html=1;aspect=fixed;fillColor=#d5e8d4;strokeColor=#82b366;strokeWidth=3;" vertex="1" parent="1">
          <mxGeometry x="180" y="420" width="40" height="40" as="geometry"/>
        </mxCell>
        <mxCell id="current-label" value="現在" style="text;html=1;strokeColor=none;fillColor=none;align=center;verticalAlign=middle;whiteSpace=wrap;rounded=0;fontSize=18;fontStyle=1;fontColor=#82b366;" vertex="1" parent="1">
          <mxGeometry x="160" y="470" width="80" height="30" as="geometry"/>
        </mxCell>

        <!-- Phase 1 -->
        <mxCell id="phase1-marker" value="1" style="ellipse;whiteSpace=wrap;html=1;aspect=fixed;fillColor=#dae8fc;strokeColor=#6c8ebf;strokeWidth=3;fontSize=20;fontStyle=1;" vertex="1" parent="1">
          <mxGeometry x="480" y="420" width="40" height="40" as="geometry"/>
        </mxCell>

        <mxCell id="phase1-box" value="" style="rounded=1;whiteSpace=wrap;html=1;fillColor=#dae8fc;strokeColor=#6c8ebf;strokeWidth=3;" vertex="1" parent="1">
          <mxGeometry x="340" y="140" width="320" height="220" as="geometry"/>
        </mxCell>
        <mxCell id="phase1-title" value="データエンジニアとの連携強化" style="text;html=1;strokeColor=none;fillColor=none;align=center;verticalAlign=middle;whiteSpace=wrap;rounded=0;fontSize=18;fontStyle=1;fontColor=#6c8ebf;" vertex="1" parent="1">
          <mxGeometry x="360" y="160" width="280" height="30" as="geometry"/>
        </mxCell>
        <mxCell id="phase1-icon" value="🤝" style="text;html=1;strokeColor=none;fillColor=none;align=center;verticalAlign=middle;whiteSpace=wrap;rounded=0;fontSize=50;" vertex="1" parent="1">
          <mxGeometry x="450" y="200" width="100" height="60" as="geometry"/>
        </mxCell>
        <mxCell id="phase1-item1" value="✓ 特徴量データマート構築" style="text;html=1;strokeColor=none;fillColor=none;align=left;verticalAlign=middle;whiteSpace=wrap;rounded=0;fontSize=14;spacingLeft=10;" vertex="1" parent="1">
          <mxGeometry x="360" y="270" width="280" height="25" as="geometry"/>
        </mxCell>
        <mxCell id="phase1-item2" value="✓ データ基盤とML基盤の連携" style="text;html=1;strokeColor=none;fillColor=none;align=left;verticalAlign=middle;whiteSpace=wrap;rounded=0;fontSize=14;spacingLeft=10;" vertex="1" parent="1">
          <mxGeometry x="360" y="300" width="280" height="25" as="geometry"/>
        </mxCell>
        <mxCell id="phase1-item3" value="✓ データサイエンティストの&lt;br&gt;　協働促進" style="text;html=1;strokeColor=none;fillColor=none;align=left;verticalAlign=middle;whiteSpace=wrap;rounded=0;fontSize=14;spacingLeft=10;" vertex="1" parent="1">
          <mxGeometry x="360" y="325" width="280" height="30" as="geometry"/>
        </mxCell>

        <!-- Phase 2 -->
        <mxCell id="phase2-marker" value="2" style="ellipse;whiteSpace=wrap;html=1;aspect=fixed;fillColor=#fff2cc;strokeColor=#d6b656;strokeWidth=3;fontSize=20;fontStyle=1;" vertex="1" parent="1">
          <mxGeometry x="880" y="420" width="40" height="40" as="geometry"/>
        </mxCell>

        <mxCell id="phase2-box" value="" style="rounded=1;whiteSpace=wrap;html=1;fillColor=#fff2cc;strokeColor=#d6b656;strokeWidth=3;" vertex="1" parent="1">
          <mxGeometry x="740" y="140" width="320" height="220" as="geometry"/>
        </mxCell>
        <mxCell id="phase2-title" value="生成AI活用" style="text;html=1;strokeColor=none;fillColor=none;align=center;verticalAlign=middle;whiteSpace=wrap;rounded=0;fontSize=18;fontStyle=1;fontColor=#d6b656;" vertex="1" parent="1">
          <mxGeometry x="760" y="160" width="280" height="30" as="geometry"/>
        </mxCell>
        <mxCell id="phase2-icon" value="🤖" style="text;html=1;strokeColor=none;fillColor=none;align=center;verticalAlign=middle;whiteSpace=wrap;rounded=0;fontSize=50;" vertex="1" parent="1">
          <mxGeometry x="850" y="200" width="100" height="60" as="geometry"/>
        </mxCell>
        <mxCell id="phase2-item1" value="✓ Claude Codeとの併用" style="text;html=1;strokeColor=none;fillColor=none;align=left;verticalAlign=middle;whiteSpace=wrap;rounded=0;fontSize=14;spacingLeft=10;" vertex="1" parent="1">
          <mxGeometry x="760" y="270" width="280" height="25" as="geometry"/>
        </mxCell>
        <mxCell id="phase2-item2" value="✓ AIエージェントによる&lt;br&gt;　コード自動改善" style="text;html=1;strokeColor=none;fillColor=none;align=left;verticalAlign=middle;whiteSpace=wrap;rounded=0;fontSize=14;spacingLeft=10;" vertex="1" parent="1">
          <mxGeometry x="760" y="300" width="280" height="30" as="geometry"/>
        </mxCell>
        <mxCell id="phase2-item3" value="✓ データ分析の簡易化" style="text;html=1;strokeColor=none;fillColor=none;align=left;verticalAlign=middle;whiteSpace=wrap;rounded=0;fontSize=14;spacingLeft=10;" vertex="1" parent="1">
          <mxGeometry x="760" y="330" width="280" height="25" as="geometry"/>
        </mxCell>

        <!-- Phase 3 -->
        <mxCell id="phase3-marker" value="3" style="ellipse;whiteSpace=wrap;html=1;aspect=fixed;fillColor=#f8cecc;strokeColor=#b85450;strokeWidth=3;fontSize=20;fontStyle=1;" vertex="1" parent="1">
          <mxGeometry x="1280" y="420" width="40" height="40" as="geometry"/>
        </mxCell>

        <mxCell id="phase3-box" value="" style="rounded=1;whiteSpace=wrap;html=1;fillColor=#f8cecc;strokeColor=#b85450;strokeWidth=3;" vertex="1" parent="1">
          <mxGeometry x="1140" y="140" width="320" height="220" as="geometry"/>
        </mxCell>
        <mxCell id="phase3-title" value="継続的な環境改善" style="text;html=1;strokeColor=none;fillColor=none;align=center;verticalAlign=middle;whiteSpace=wrap;rounded=0;fontSize=18;fontStyle=1;fontColor=#b85450;" vertex="1" parent="1">
          <mxGeometry x="1160" y="160" width="280" height="30" as="geometry"/>
        </mxCell>
        <mxCell id="phase3-icon" value="🔄" style="text;html=1;strokeColor=none;fillColor=none;align=center;verticalAlign=middle;whiteSpace=wrap;rounded=0;fontSize=50;" vertex="1" parent="1">
          <mxGeometry x="1250" y="200" width="100" height="60" as="geometry"/>
        </mxCell>
        <mxCell id="phase3-item1" value="✓ フィードバックの収集" style="text;html=1;strokeColor=none;fillColor=none;align=left;verticalAlign=middle;whiteSpace=wrap;rounded=0;fontSize=14;spacingLeft=10;" vertex="1" parent="1">
          <mxGeometry x="1160" y="270" width="280" height="25" as="geometry"/>
        </mxCell>
        <mxCell id="phase3-item2" value="✓ 新ツール・サービスの導入" style="text;html=1;strokeColor=none;fillColor=none;align=left;verticalAlign=middle;whiteSpace=wrap;rounded=0;fontSize=14;spacingLeft=10;" vertex="1" parent="1">
          <mxGeometry x="1160" y="300" width="280" height="25" as="geometry"/>
        </mxCell>
        <mxCell id="phase3-item3" value="✓ チーム全体の生産性向上" style="text;html=1;strokeColor=none;fillColor=none;align=left;verticalAlign=middle;whiteSpace=wrap;rounded=0;fontSize=14;spacingLeft=10;" vertex="1" parent="1">
          <mxGeometry x="1160" y="330" width="280" height="25" as="geometry"/>
        </mxCell>

        <!-- Arrows from timeline -->
        <mxCell id="arrow-phase1" value="" style="endArrow=classic;html=1;strokeWidth=3;strokeColor=#6c8ebf;" edge="1" parent="1" source="phase1-marker" target="phase1-box">
          <mxGeometry width="50" height="50" relative="1" as="geometry">
            <mxPoint x="500" y="400" as="sourcePoint"/>
            <mxPoint x="550" y="350" as="targetPoint"/>
          </mxGeometry>
        </mxCell>
        <mxCell id="arrow-phase2" value="" style="endArrow=classic;html=1;strokeWidth=3;strokeColor=#d6b656;" edge="1" parent="1" source="phase2-marker" target="phase2-box">
          <mxGeometry width="50" height="50" relative="1" as="geometry">
            <mxPoint x="900" y="400" as="sourcePoint"/>
            <mxPoint x="950" y="350" as="targetPoint"/>
          </mxGeometry>
        </mxCell>
        <mxCell id="arrow-phase3" value="" style="endArrow=classic;html=1;strokeWidth=3;strokeColor=#b85450;" edge="1" parent="1" source="phase3-marker" target="phase3-box">
          <mxGeometry width="50" height="50" relative="1" as="geometry">
            <mxPoint x="1300" y="400" as="sourcePoint"/>
            <mxPoint x="1350" y="350" as="targetPoint"/>
          </mxGeometry>
        </mxCell>

        <!-- Bottom Summary -->
        <mxCell id="goal-box" value="" style="rounded=1;whiteSpace=wrap;html=1;fillColor=#e1d5e7;strokeColor=#9673a6;strokeWidth=3;" vertex="1" parent="1">
          <mxGeometry x="300" y="600" width="1000" height="200" as="geometry"/>
        </mxCell>
        <mxCell id="goal-icon" value="🎯" style="text;html=1;strokeColor=none;fillColor=none;align=center;verticalAlign=middle;whiteSpace=wrap;rounded=0;fontSize=80;" vertex="1" parent="1">
          <mxGeometry x="360" y="630" width="140" height="100" as="geometry"/>
        </mxCell>
        <mxCell id="goal-title" value="最終ゴール" style="text;html=1;strokeColor=none;fillColor=none;align=left;verticalAlign=middle;whiteSpace=wrap;rounded=0;fontSize=26;fontStyle=1;fontColor=#9673a6;spacingLeft=20;" vertex="1" parent="1">
          <mxGeometry x="520" y="620" width="740" height="40" as="geometry"/>
        </mxCell>
        <mxCell id="goal-text" value="インターン生がインフラを意識せずデータサイエンスに集中でき、&lt;br&gt;AI支援により開発体験が最大化される環境の実現" style="text;html=1;strokeColor=none;fillColor=none;align=left;verticalAlign=middle;whiteSpace=wrap;rounded=0;fontSize=20;spacingLeft=20;" vertex="1" parent="1">
          <mxGeometry x="520" y="670" width="740" height="110" as="geometry"/>
        </mxCell>

      </root>
    </mxGraphModel>
  </diagram>
</mxfile>
